<?xml version="1.0" encoding="UTF-8"?>
<svg id="Layer_2" data-name="Layer 2" xmlns="http://www.w3.org/2000/svg" xmlns:xlink="http://www.w3.org/1999/xlink" viewBox="0 0 275.4 280.91">
  <defs>
    <style>
      .cls-1 {
        fill: url(#linear-gradient);
      }
    </style>
    <linearGradient id="linear-gradient" x1="69.79" y1="22.62" x2="206.26" y2="261.99" gradientUnits="userSpaceOnUse">
      <stop offset="0" stop-color="#d6a85e"/>
      <stop offset=".51" stop-color="#f1e27c"/>
      <stop offset=".99" stop-color="#d3a13f"/>
    </linearGradient>
  </defs>
  <g id="Layer_1-2" data-name="Layer 1">
    <path class="cls-1" d="M136.59,193.88c8.52,0,15.42,19.48,15.42,43.51,0,24.03-6.91,43.51-15.42,43.51-8.52,0-15.42-19.48-15.42-43.51,0-24.03,6.9-43.51,15.42-43.51ZM162.79,187.28c8.99-5.48,26.42,6.72,38.93,27.25,12.51,20.53,15.37,41.61,6.38,47.09-8.99,5.48-26.42-6.72-38.93-27.25-12.51-20.53-15.37-41.61-6.38-47.09ZM75.73,217.24c12.02-20.81,27.03-34.63,33.54-30.88,6.51,3.76,2.05,23.68-9.97,44.49-12.02,20.81-27.03,34.64-33.54,30.88-6.51-3.76-2.04-23.68,9.97-44.49ZM181.16,167.17c5.42-9.02,26.53-6.3,47.13,6.09,20.6,12.39,32.91,29.74,27.48,38.77-5.42,9.02-26.53,6.29-47.13-6.09-20.6-12.39-32.91-29.74-27.49-38.77ZM48.5,177.36c20.84-11.96,40.58-16.7,44.09-10.59,3.51,6.11-10.55,20.76-31.39,32.72-20.84,11.96-40.59,16.7-44.09,10.59-3.51-6.11,10.55-20.76,31.39-32.72ZM231.88,118.98c24.03,0,43.51,9.86,43.51,22.03,0,12.17-19.48,22.03-43.51,22.03-24.03,0-43.51-9.86-43.51-22.03,0-12.17,19.48-22.03,43.51-22.03ZM42.96,129.99c23.73,0,42.96,4.69,42.96,10.47,0,5.78-19.23,10.47-42.96,10.47S0,146.23,0,140.45c0-5.78,19.23-10.47,42.96-10.47ZM17.99,71.66c2.49-4.09,21.32,2.81,42.07,15.42,20.75,12.61,35.55,26.15,33.06,30.24-2.49,4.09-21.32-2.81-42.07-15.42-20.75-12.61-35.55-26.15-33.06-30.24ZM212.87,82.75c21.12-12.09,41.03-17.03,44.47-11.02,3.44,6.01-10.89,20.69-32,32.78-21.12,12.09-41.03,17.03-44.47,11.02-3.44-6.01,10.89-20.69,32-32.78ZM70.33,23.01c4.17-2.36,17.25,12.85,29.22,33.97,11.97,21.12,18.29,40.16,14.13,42.52-4.17,2.36-17.25-12.85-29.22-33.97-11.97-21.12-18.29-40.16-14.13-42.52ZM173.65,52.95c12.38-20.95,27.24-35.08,33.21-31.56,5.96,3.52.76,23.36-11.61,44.32-12.38,20.95-27.24,35.09-33.21,31.56-5.96-3.52-.77-23.37,11.61-44.32ZM136.05,0c3.35,0,6.06,19.73,6.06,44.06s-2.71,44.06-6.06,44.06c-3.35,0-6.06-19.73-6.06-44.06S132.7,0,136.05,0Z"/>
  </g>
</svg>