<?xml version="1.0" encoding="UTF-8"?>
<svg id="Layer_2" data-name="Layer 2" xmlns="http://www.w3.org/2000/svg" viewBox="0 0 856.68 185.46">
  <defs>
    <style>
      .cls-1 {
        fill: #d3a13f;
      }
    </style>
  </defs>
  <g id="Layer_1-2" data-name="Layer 1">
    <path class="cls-1" d="M3.81,152.84c-1.27,0-2.16-.45-2.67-1.34-.51-.89-.76-1.84-.76-2.86.12-2.16.64-3.37,1.53-3.62.89-.25,1.97-.38,3.24-.38,4.07,0,6.9-.73,8.49-2.19,1.59-1.46,2.57-3.3,2.96-5.53.38-2.22.57-4.54.57-6.96l.38-75.71c0-5.97-1.02-9.79-3.05-11.44-2.04-1.65-5.28-2.92-9.73-3.81-1.91-.38-3.18-.73-3.81-1.05-.64-.32-.95-1.43-.95-3.34,0-2.16.76-3.34,2.29-3.53s3.3-.29,5.34-.29c7.12,0,12.87.57,17.26,1.72,4.39,1.14,8.26,3.18,11.63,6.1,3.37,2.93,7.02,7.06,10.97,12.4l52.25,68.66h.57l-.38-65.41c0-2.41-.19-4.73-.57-6.96-.38-2.22-1.37-4.07-2.96-5.53-1.59-1.46-4.42-2.19-8.49-2.19-1.27,0-2.35-.13-3.24-.38-.89-.25-1.46-1.46-1.72-3.62,0-1.02.29-1.97.86-2.86.57-.89,1.43-1.33,2.57-1.33,2.8.13,5.05.22,6.77.29,1.72.07,3.43.13,5.15.19,1.72.07,3.84.1,6.39.1s4.64-.03,6.29-.1c1.65-.06,3.34-.13,5.05-.19,1.72-.06,3.91-.16,6.58-.29,1.27,0,2.16.45,2.67,1.33.51.89.76,1.84.76,2.86-.13,2.16-.6,3.37-1.43,3.62-.83.26-1.94.38-3.34.38-3.94,0-6.74.73-8.39,2.19-1.65,1.46-2.64,3.31-2.96,5.53-.32,2.23-.54,4.55-.67,6.96l-.38,96.12c-.13,1.02-.73,1.69-1.81,2-1.08.32-2.07.48-2.96.48-2.42,0-4.26-.83-5.53-2.48L26.7,54.24h-.57l.38,75.71c.13,2.42.35,4.74.67,6.96.32,2.23,1.3,4.07,2.96,5.53,1.65,1.46,4.45,2.19,8.39,2.19,1.4,0,2.54.13,3.43.38.89.26,1.4,1.46,1.53,3.62,0,1.02-.29,1.97-.86,2.86s-1.43,1.34-2.57,1.34c-2.67-.13-4.93-.22-6.77-.29-1.84-.06-3.62-.13-5.34-.19-1.72-.06-3.85-.09-6.39-.09s-4.61.03-6.2.09c-1.59.06-3.21.13-4.86.19-1.65.06-3.88.16-6.67.29ZM355.09,149.83c-2.67-7.25-5.05-13.83-7.15-19.74-2.1-5.91-4.45-12.4-7.06-19.45-2.61-7.06-5.21-14.11-7.82-21.17-2.61-7.06-4.96-13.51-7.06-19.36-2.1-5.85-4.48-12.33-7.15-19.45-2.04-5.21-4.07-8.96-6.1-11.25-2.04-2.29-5.09-3.81-9.15-4.58-1.78-.38-3.02-.7-3.72-.95-.7-.25-1.05-1.4-1.05-3.43,0-2.16.76-3.34,2.29-3.53s3.3-.29,5.34-.29c8.52.13,15.13,1.69,19.83,4.67,4.7,2.99,8.45,8.11,11.25,15.35l27.65,74.38h.57l26.32-76.48c1.4-4.07,1.46-6.64.19-7.72-1.27-1.08-4.13-1.62-8.58-1.62-1.27,0-2.35-.13-3.24-.38-.89-.25-1.4-1.46-1.53-3.62,0-1.02.25-1.97.76-2.86s1.34-1.33,2.48-1.33c4.07.13,7.6.26,10.58.38,2.99.13,6.39.19,10.2.19,2.54,0,4.64-.03,6.29-.1,1.65-.06,3.34-.13,5.05-.19,1.72-.06,3.91-.16,6.58-.29,1.27,0,2.16.45,2.67,1.33.51.89.76,1.84.76,2.86-.13,2.16-.61,3.37-1.43,3.62-.83.26-1.94.38-3.34.38-4.83,0-8.65.89-11.44,2.67-2.8,1.78-5.21,5.21-7.25,10.3,0-.12-.67,1.62-2,5.24s-3.08,8.46-5.24,14.49c-2.16,6.04-4.55,12.68-7.15,19.93-2.61,7.25-5.24,14.49-7.92,21.74-2.67,7.25-5.09,13.92-7.25,20.02-2.16,6.1-4.58,12.84-7.25,20.22h-8.96ZM430.42,148.49c-1.14,0-1.97-.45-2.48-1.34-.51-.89-.76-1.84-.76-2.86.12-2.16.64-3.37,1.53-3.62.89-.25,1.97-.38,3.24-.38,4.07,0,6.93-.73,8.58-2.19,1.65-1.46,2.7-3.3,3.15-5.53.44-2.22.67-4.54.67-6.96V49.89c0-2.41-.22-4.73-.67-6.96-.45-2.22-1.5-4.07-3.15-5.53-1.65-1.46-4.51-2.19-8.58-2.19-1.27,0-2.35-.13-3.24-.38-.89-.25-1.4-1.46-1.53-3.62,0-1.02.25-1.97.76-2.86.51-.89,1.33-1.33,2.48-1.33,4.2.13,8.07.26,11.63.38,3.56.13,7.25.19,11.06.19h59.88c1.4,0,2.57.32,3.53.95.95.64,1.43,1.84,1.43,3.62l.57,26.7c0,1.27-.61,2.23-1.81,2.86-1.21.64-2.32.95-3.34.95-1.4,0-2.67-.29-3.81-.86-1.14-.57-1.85-1.43-2.1-2.57-.89-5.72-1.94-10.33-3.15-13.83-1.21-3.5-2.99-6.04-5.34-7.63-2.35-1.59-5.75-2.45-10.2-2.57h-25.56v48.44h34.52c1.02.13,1.75.64,2.19,1.53.44.89.67,1.84.67,2.86,0,.89-.22,1.75-.67,2.57-.45.83-1.18,1.24-2.19,1.24h-34.52v36.04c.12,1.65.38,3.47.76,5.44.38,1.97,1.49,3.66,3.34,5.05,1.84,1.4,4.93,2.04,9.25,1.91h17.55c4.45-.12,7.85-.86,10.2-2.19,2.35-1.34,4.23-3.59,5.63-6.77,1.4-3.18,2.92-7.56,4.58-13.16.51-1.27,1.36-2.1,2.57-2.48,1.21-.38,2.51-.44,3.91-.19,1.02.13,2.07.57,3.15,1.34,1.08.76,1.55,1.78,1.43,3.05l-3.81,24.03c-.38,1.78-.99,2.89-1.81,3.34-.83.45-2.07.67-3.72.67h-62.94c-3.81,0-7.53.03-11.16.09-3.62.06-7.53.22-11.73.48ZM543.7,148.49c-1.14,0-1.97-.45-2.48-1.34-.51-.89-.76-1.84-.76-2.86.12-2.16.64-3.37,1.53-3.62.89-.25,1.97-.38,3.24-.38,4.07,0,6.93-.73,8.58-2.19,1.65-1.46,2.7-3.3,3.15-5.53.44-2.22.67-4.54.67-6.96V49.89c0-2.41-.22-4.73-.67-6.96-.45-2.22-1.5-4.07-3.15-5.53-1.65-1.46-4.51-2.19-8.58-2.19-1.27,0-2.35-.13-3.24-.38-.89-.25-1.4-1.46-1.53-3.62,0-1.02.25-1.97.76-2.86.51-.89,1.33-1.33,2.48-1.33,4.2.13,8.07.26,11.63.38,3.56.13,7.25.19,11.06.19,7.75,0,15.7-.19,23.84-.57,1.27,0,2.16.45,2.67,1.33.51.89.76,1.84.76,2.86-.13,2.16-.64,3.37-1.53,3.62-.89.26-1.97.38-3.24.38-3.94,0-6.77.73-8.49,2.19-1.72,1.46-2.77,3.31-3.15,5.53-.38,2.23-.64,4.55-.76,6.96v78.57c.12,1.65.38,3.43.76,5.34s1.49,3.5,3.34,4.77c1.84,1.27,4.93,1.84,9.25,1.72h17.16c4.45-.12,7.85-.86,10.2-2.19,2.35-1.34,4.23-3.59,5.63-6.77,1.4-3.18,2.92-7.56,4.58-13.16.51-1.27,1.36-2.1,2.57-2.48,1.21-.38,2.51-.44,3.91-.19,1.02.13,2.07.57,3.15,1.34,1.08.76,1.55,1.78,1.43,3.05l-3.81,24.03c-.38,1.78-.99,2.89-1.81,3.34-.83.45-2.07.67-3.72.67h-62.55c-3.81,0-7.53.03-11.16.09-3.62.06-7.53.22-11.73.48ZM652.6,148.49c-1.14,0-1.97-.45-2.48-1.34-.51-.89-.76-1.84-.76-2.86.12-2.16.63-3.37,1.52-3.62.89-.25,1.97-.38,3.24-.38,4.07,0,6.93-.73,8.58-2.19,1.65-1.46,2.7-3.3,3.15-5.53.44-2.22.67-4.54.67-6.96V49.89c0-2.41-.22-4.73-.67-6.96-.45-2.22-1.5-4.07-3.15-5.53-1.65-1.46-4.51-2.19-8.58-2.19-1.27,0-2.35-.13-3.24-.38-.89-.25-1.4-1.46-1.52-3.62,0-1.02.25-1.97.76-2.86s1.34-1.33,2.48-1.33c4.19.13,8.07.26,11.63.38,3.56.13,7.25.19,11.06.19,7.75,0,15.7-.19,23.84-.57,1.27,0,2.16.45,2.67,1.33.51.89.76,1.84.76,2.86-.13,2.16-.64,3.37-1.53,3.62-.89.26-1.97.38-3.24.38-3.94,0-6.77.73-8.49,2.19-1.72,1.46-2.77,3.31-3.15,5.53-.38,2.23-.64,4.55-.76,6.96v78.57c.13,1.65.38,3.43.76,5.34s1.49,3.5,3.34,4.77c1.84,1.27,4.93,1.84,9.25,1.72h17.16c4.45-.12,7.85-.86,10.2-2.19,2.35-1.34,4.23-3.59,5.63-6.77,1.4-3.18,2.92-7.56,4.58-13.16.51-1.27,1.37-2.1,2.58-2.48,1.21-.38,2.51-.44,3.91-.19,1.02.13,2.06.57,3.15,1.34,1.08.76,1.55,1.78,1.43,3.05l-3.81,24.03c-.38,1.78-.99,2.89-1.81,3.34-.83.45-2.07.67-3.72.67h-62.55c-3.81,0-7.53.03-11.16.09-3.62.06-7.53.22-11.73.48ZM761.5,148.49c-1.14,0-1.97-.45-2.48-1.34-.51-.89-.76-1.84-.76-2.86.12-2.16.63-3.37,1.53-3.62.89-.25,1.97-.38,3.24-.38,4.07,0,6.93-.73,8.58-2.19,1.65-1.46,2.7-3.3,3.15-5.53.44-2.22.67-4.54.67-6.96V49.89c0-2.41-.22-4.73-.67-6.96-.45-2.22-1.5-4.07-3.15-5.53-1.65-1.46-4.52-2.19-8.58-2.19-1.27,0-2.35-.13-3.24-.38-.89-.25-1.4-1.46-1.53-3.62,0-1.02.25-1.97.76-2.86.51-.89,1.33-1.33,2.48-1.33,4.2.13,8.07.26,11.63.38,3.56.13,7.25.19,11.06.19h59.88c1.4,0,2.58.32,3.53.95.95.64,1.43,1.84,1.43,3.62l.57,26.7c0,1.27-.6,2.23-1.81,2.86-1.21.64-2.32.95-3.34.95-1.4,0-2.67-.29-3.81-.86-1.14-.57-1.85-1.43-2.1-2.57-.89-5.72-1.94-10.33-3.15-13.83-1.21-3.5-2.99-6.04-5.34-7.63-2.35-1.59-5.76-2.45-10.2-2.57h-25.56v48.44h34.52c1.02.13,1.75.64,2.19,1.53.44.89.67,1.84.67,2.86,0,.89-.22,1.75-.67,2.57-.45.83-1.18,1.24-2.19,1.24h-34.52v36.04c.13,1.65.38,3.47.76,5.44.38,1.97,1.49,3.66,3.34,5.05,1.84,1.4,4.93,2.04,9.25,1.91h17.54c4.45-.12,7.85-.86,10.2-2.19,2.35-1.34,4.23-3.59,5.63-6.77,1.4-3.18,2.92-7.56,4.58-13.16.51-1.27,1.37-2.1,2.58-2.48,1.21-.38,2.51-.44,3.91-.19,1.02.13,2.06.57,3.15,1.34,1.08.76,1.55,1.78,1.43,3.05l-3.81,24.03c-.38,1.78-.99,2.89-1.81,3.34-.83.45-2.07.67-3.72.67h-62.94c-3.81,0-7.53.03-11.16.09-3.62.06-7.53.22-11.73.48ZM212.47,128c5.62,0,10.18,12.86,10.18,28.73,0,15.87-4.56,28.73-10.18,28.73-5.62,0-10.18-12.86-10.18-28.73,0-15.86,4.56-28.73,10.18-28.73ZM229.76,123.65c5.93-3.62,17.44,4.44,25.7,17.99,8.26,13.55,10.15,27.47,4.21,31.09-5.93,3.62-17.44-4.44-25.7-17.99-8.26-13.55-10.15-27.47-4.21-31.09ZM172.28,143.43c7.93-13.74,17.85-22.87,22.14-20.39,4.3,2.48,1.35,15.63-6.58,29.37-7.93,13.74-17.85,22.87-22.15,20.39-4.3-2.48-1.35-15.63,6.58-29.37ZM241.89,110.37c3.58-5.96,17.51-4.16,31.12,4.02,13.6,8.18,21.73,19.64,18.15,25.59-3.58,5.96-17.51,4.16-31.12-4.02-13.6-8.18-21.73-19.64-18.15-25.59ZM154.31,117.09c13.76-7.9,26.79-11.03,29.11-6.99,2.32,4.03-6.96,13.71-20.73,21.6-13.76,7.9-26.79,11.03-29.11,6.99-2.31-4.03,6.97-13.71,20.73-21.6ZM275.38,78.55c15.87,0,28.73,6.51,28.73,14.54,0,8.03-12.86,14.55-28.73,14.55-15.87,0-28.73-6.51-28.73-14.55,0-8.03,12.86-14.54,28.73-14.54ZM150.65,85.82c15.66,0,28.36,3.09,28.36,6.91,0,3.82-12.7,6.91-28.36,6.91s-28.36-3.09-28.36-6.91c0-3.82,12.7-6.91,28.36-6.91ZM134.16,47.31c1.64-2.7,14.08,1.86,27.77,10.18,13.7,8.32,23.47,17.26,21.83,19.96-1.64,2.7-14.08-1.86-27.77-10.18-13.7-8.32-23.47-17.26-21.83-19.96ZM262.82,54.63c13.94-7.98,27.09-11.24,29.36-7.27,2.27,3.97-7.19,13.66-21.13,21.64-13.94,7.98-27.09,11.24-29.36,7.27-2.27-3.97,7.19-13.66,21.13-21.64ZM168.72,15.19c2.75-1.56,11.39,8.48,19.29,22.43,7.9,13.94,12.08,26.51,9.33,28.07-2.75,1.56-11.39-8.48-19.29-22.43-7.9-13.94-12.08-26.51-9.33-28.07ZM236.93,34.96c8.17-13.83,17.99-23.16,21.92-20.84,3.94,2.33.5,15.43-7.67,29.26-8.17,13.83-17.99,23.16-21.92,20.84-3.94-2.33-.51-15.43,7.67-29.26ZM212.1,0c2.21,0,4,13.03,4,29.09s-1.79,29.09-4,29.09c-2.21,0-4-13.03-4-29.09S209.89,0,212.1,0Z"/>
  </g>
</svg>